<?xml version="1.0" encoding="UTF-8"?>
<svg id="_レイヤー_2" data-name="レイヤー 2" xmlns="http://www.w3.org/2000/svg" viewBox="0 0 200 196.19">
  <defs>
    <style>
      .cls-1 {
        fill: #fff;
      }
    </style>
  </defs>
  <g id="_レイヤー_1-2" data-name="レイヤー 1">
    <g>
      <path class="cls-1" d="M2.2,196.19H43.73c2.2,0,4.15-1.22,5.38-2.93L163.45,5.38c1.47-2.44-.24-5.38-3.18-5.38h-39.34c-1.95,0-3.66,.98-4.64,2.69L.25,192.77c-.73,1.47,.24,3.42,1.95,3.42Z"/>
      <path class="cls-1" d="M145.37,193.26l53.99-86.73c1.71-2.69-.24-6.11-3.42-6.11h-39.09c-1.47,0-2.93,.73-3.66,1.95l-55.46,88.69c-1.47,2.2,.24,5.13,2.93,5.13h39.82c1.95,0,3.91-.98,4.89-2.93Z"/>
    </g>
  </g>
</svg>