<?xml version="1.0" encoding="UTF-8"?>
<svg id="_レイヤー_2" data-name="レイヤー 2" xmlns="http://www.w3.org/2000/svg" viewBox="0 0 200 195.06">
  <defs>
    <style>
      .cls-1 {
        fill: #fff;
        fill-rule: evenodd;
      }
    </style>
  </defs>
  <g id="_レイヤー_1-2" data-name="レイヤー 1">
    <path class="cls-1" d="M99.99,0C44.78,0,0,44.77,0,100.01c0,44.18,28.65,81.66,68.39,94.88,5,.92,6.83-2.17,6.83-4.82,0-2.37-.09-8.66-.14-17.01-27.82,6.04-33.69-13.4-33.69-13.4-4.55-11.55-11.1-14.63-11.1-14.63-9.08-6.2,.69-6.08,.69-6.08,10.04,.71,15.32,10.31,15.32,10.31,8.92,15.28,23.4,10.87,29.1,8.31,.91-6.46,3.49-10.87,6.35-13.37-22.21-2.52-45.55-11.1-45.55-49.42,0-10.92,3.9-19.84,10.29-26.83-1.03-2.53-4.46-12.7,.98-26.46,0,0,8.4-2.69,27.5,10.25,7.98-2.22,16.53-3.33,25.04-3.37,8.49,.04,17.05,1.15,25.04,3.37,19.09-12.94,27.47-10.25,27.47-10.25,5.46,13.77,2.02,23.93,1,26.46,6.41,6.99,10.28,15.92,10.28,26.83,0,38.42-23.38,46.87-45.66,49.35,3.59,3.09,6.79,9.19,6.79,18.52,0,13.37-.12,24.15-.12,27.43,0,2.67,1.8,5.79,6.88,4.81,39.7-13.25,68.33-50.71,68.33-94.87C200,44.77,155.22,0,99.99,0Z"/>
  </g>
</svg>