<?xml version="1.0" encoding="UTF-8"?>
<svg id="_レイヤー_2" data-name="レイヤー 2" xmlns="http://www.w3.org/2000/svg" viewBox="0 0 199.66 200">
  <defs>
    <style>
      .cls-1 {
        fill: #fff;
      }
    </style>
  </defs>
  <g id="_レイヤー_1-2" data-name="レイヤー 1">
    <g>
      <path class="cls-1" d="M99.76,48.5c-28.31,0-51.27,22.95-51.27,51.27s22.95,51.27,51.27,51.27,51.27-22.95,51.27-51.27-22.95-51.27-51.27-51.27h0Zm0,84.57c-18.39,0-33.3-14.91-33.3-33.3s14.91-33.3,33.3-33.3,33.3,14.91,33.3,33.3-14.91,33.3-33.3,33.3h0Z"/>
      <circle class="cls-1" cx="153.06" cy="46.61" r="11.96"/>
      <path class="cls-1" d="M194.39,34.45c-5.19-13.4-15.78-23.99-29.18-29.18-7.76-2.91-15.96-4.49-24.25-4.66-10.67-.47-14.05-.61-41.13-.61s-30.53,0-41.13,.61c-8.29,.17-16.49,1.75-24.25,4.66-13.4,5.19-23.99,15.78-29.18,29.18C2.35,42.21,.78,50.41,.61,58.7c-.47,10.67-.61,14.05-.61,41.13s0,30.53,.61,41.13c.17,8.29,1.75,16.49,4.66,24.25,5.19,13.4,15.78,23.99,29.18,29.18,7.74,3.03,15.94,4.72,24.25,5,10.67,.47,14.05,.61,41.13,.61s30.53,0,41.13-.61c8.29-.17,16.49-1.75,24.25-4.66,13.4-5.19,23.99-15.78,29.18-29.18,2.91-7.76,4.49-15.96,4.66-24.25,.47-10.67,.61-14.05,.61-41.13s0-30.53-.61-41.13c-.13-8.4-1.71-16.72-4.66-24.59Zm-13.51,105.71c-.06,6.39-1.22,12.72-3.44,18.71-3.36,8.72-10.26,15.62-18.98,18.98-5.93,2.2-12.19,3.36-18.51,3.44-10.54,.47-13.51,.61-40.53,.61s-29.79,0-40.53-.61c-6.32-.08-12.58-1.25-18.51-3.44-8.75-3.34-15.68-10.24-19.05-18.98-2.2-5.93-3.36-12.19-3.44-18.51-.47-10.54-.61-13.51-.61-40.53s0-29.79,.61-40.53c.06-6.39,1.22-12.72,3.44-18.71,3.37-8.74,10.29-15.64,19.05-18.98,5.93-2.2,12.19-3.36,18.51-3.44,10.54-.47,13.51-.61,40.53-.61s29.79,0,40.53,.61c6.32,.08,12.58,1.25,18.51,3.44,8.72,3.36,15.62,10.26,18.98,18.98,2.2,5.93,3.36,12.19,3.44,18.51,.47,10.54,.61,13.51,.61,40.53s0,29.92-.47,40.53h-.14Z"/>
    </g>
  </g>
</svg>