<?xml version="1.0" encoding="utf-8"?>
<!-- Generator: Adobe Illustrator 26.5.0, SVG Export Plug-In . SVG Version: 6.00 Build 0)  -->
<svg version="1.1" id="レイヤー_1" xmlns="http://www.w3.org/2000/svg" xmlns:xlink="http://www.w3.org/1999/xlink" x="0px"
	 y="0px" viewBox="0 0 200 200" style="enable-background:new 0 0 200 200;" xml:space="preserve">
<style type="text/css">
	.st0{fill:#2B2C30;}
	.st1{fill:#FFFFFF;}
</style>
<path class="st0" d="M175,0H25C11.2,0,0,11.2,0,25v150c0,13.8,11.2,25,25,25h150c13.8,0,25-11.2,25-25V25C200,11.2,188.8,0,175,0z"
	/>
<path class="st1" d="M157.9,89.7c-2.4-2.4-6.4-2.4-8.8,0L97,141.9l-7.1-7.1l-14.1,14.1l7.1,7.1l9.7,9.7c2.4,2.4,6.4,2.4,8.8,0
	l52.1-52.2l7.1,7.1l14.1-14.1L157.9,89.7z"/>
<path class="st1" d="M47.5,120.7l14.1-14.1l-7.1-7.1L96.9,57l7.1,7.1L118.2,50l-16.8-16.8c-2.4-2.4-6.4-2.4-8.8,0L30.7,95
	c-2.4,2.4-2.4,6.4,0,8.8L47.5,120.7L47.5,120.7z"/>
<path class="st1" d="M129.7,61.5c-2.4-2.4-6.4-2.4-8.8,0l-66.3,66.3l14.1,14.1l56.6-56.6l7.1,7.1l14.1-14.1L129.7,61.5z"/>
</svg>
